<?xml version="1.0" encoding="utf-8"?>
<!-- Generator: Adobe Illustrator 17.1.0, SVG Export Plug-In . SVG Version: 6.00 Build 0)  -->
<!DOCTYPE svg PUBLIC "-//W3C//DTD SVG 1.1//EN" "http://www.w3.org/Graphics/SVG/1.1/DTD/svg11.dtd">
<svg version="1.1" id="Isolation_Mode" xmlns="http://www.w3.org/2000/svg" xmlns:xlink="http://www.w3.org/1999/xlink" x="0px"
	 y="0px" viewBox="0 0 666.1 182" enable-background="new 0 0 666.1 182" xml:space="preserve">
<g>
	<g>
		<path fill="#2B3033" d="M24.1,18.8v118.4c0,11,4.8,14.9,12.5,14.9c7.7,0,12.5-3.9,12.5-14.9V18.8h22.8v116.9
			c0,24.6-12.3,38.6-36,38.6c-23.7,0-36-14-36-38.6V18.8H24.1z"/>
		<path fill="#2B3033" d="M168.9,18.8l-25.2,74.6l27,79h-25.4l-19.7-60.8l-20,60.8H82.9l27-79L84.7,18.8h25l18.2,56.6l18.6-56.6
			H168.9z"/>
	</g>
	<g>
		<path fill="#2B3033" d="M360.6,60.8V172h-21.7V18.4h30.3l24.8,91.9V18.4h21.5V172h-24.8L360.6,60.8z"/>
		<path fill="#2B3033" d="M537.1,143.7l18.4-125.2h22.2L554,172h-36L494.3,18.4h24.3L537.1,143.7z"/>
		<path fill="#2B3033" d="M611.5,121.1L581,18.4h25.2l18.4,70l18.4-70h23l-30.5,102.6V172h-24.1V121.1z"/>
	</g>
	<g>
		<path fill="#2B3033" d="M460.3,46.5l-18.4,125.2h-22.2l23.7-153.5h36l23.7,153.5h-24.3L460.3,46.5z"/>
	</g>
	<g>
		<path fill="#B21B2D" d="M332.2,109.4l-33.2,14.2l12.4,8.2c-14.2,12.9-32,21.6-51.6,23.9c-0.4-14.2-2.1-52.5-4.4-83.7h19.1
			c4.3,0,7.9-3.3,7.9-7.3v-3c0-4-3.5-7.3-7.9-7.3H254c-0.4-4-0.8-7.6-1.2-10.9c11.2-1.7,19.7-10.7,19.7-21.6c0-12.1-10.6-22-23.6-22
			c-13,0-23.6,9.8-23.6,22c0,10.9,8.5,19.9,19.7,21.6c-0.4,3.3-0.8,6.9-1.2,10.9h-20.6c-4.3,0-7.9,3.3-7.9,7.3v3
			c0,4,3.5,7.3,7.9,7.3h19.1c-2.3,31.1-4,69.5-4.4,83.7c-19.6-2.4-37.4-11-51.6-23.9l12.4-8.2l-33.2-14.2l3.3,33.9l11.7-7.7
			c14.5,27.9,39.7,46.4,68.3,46.4c28.6,0,53.8-18.5,68.3-46.4l11.7,7.7L332.2,109.4z M236.4,22c0-6.4,5.6-11.6,12.5-11.6
			c6.9,0,12.5,5.2,12.5,11.6c0,6.4-5.6,11.6-12.5,11.6C242,33.6,236.4,28.4,236.4,22z"/>
	</g>
</g>
</svg>
